# xmcd CD database file
#
# Track frame offsets:
#	150
#	17514
#	35715
#	50008
#	68864
#	88173
#	107821
#	120300
#	136212
#	157088
#
# Disc length: 2394 seconds
#
# Revision: 0
# Processed by: cddbd v1.5.2PL0 Copyright (c) Steve Scherf et al.
# Submitted via: CDex 1.70beta2
#
DISCID=8609580a
DTITLE=Drew, Jackie (10) - Cdn. - Calgary, AB - Cty - Red Hot Candy Heart
DYEAR=2010
DGENRE=Country
TTITLE0=Sugar Daddy
TTITLE1=Achin' Burnin' Dream
TTITLE2=My Breast Friends
TTITLE3=Cowgirl That I Am
TTITLE4=Moonlight's Calling
TTITLE5=Neither Would I
TTITLE6=Cleaning Lady
TTITLE7=When We Crack
TTITLE8=Rusty Rider
TTITLE9=Talk to Me Tonight
EXTD=YEAR: 2010
EXTT0=
EXTT1=
EXTT2=
EXTT3=
EXTT4=
EXTT5=
EXTT6=
EXTT7=
EXTT8=
EXTT9=
PLAYORDER=
